<?xml version="1.0" encoding="UTF-8"?>
<svg id="Layer_1" data-name="Layer 1" xmlns="http://www.w3.org/2000/svg" viewBox="0 0 2048 2048">
  <defs>
    <style>
      .cls-1 {
        fill: #fff;
        stroke-width: 0px;
      }
    </style>
  </defs>
  <path class="cls-1" d="M1869.2668,1023.3816c-.3093-40.2982-26.96-73.341-66.3175-82.2202l-273.1568-61.7038c-3.5569-.8248-7.1008-1.5078-10.6577-2.0748-18.8153-2.9641-34.3186-15.4453-41.4839-33.3907-7.4617-18.7122-4.6136-39.3768,7.6034-55.2796,149.8909-195.1507,228.9795-344.932,216.9815-410.9466-2.513-13.8344-8.7633-23.88-19.0988-30.6586-106.1002-21.3734-323.4812,136.6815-412.2868,205.7568-15.7997,12.3201-36.3419,15.1296-54.8865,7.5841-18.7251-7.6292-31.5478-24.1764-34.3057-44.261-37.6177-274.2651-96.6668-438.1514-157.9453-438.3963h-.1289c-58.9718,0-116.6806,154.8524-154.3885,414.3488-2.7192,18.7315-14.5496,34.5828-31.638,42.3924-17.6039,8.048-37.9785,6.5145-54.5386-4.0788l-237.6268-150.0648c-34.3959-21.7665-76.8205-17.0175-105.5847,11.7789-28.7513,28.7513-33.4809,71.1759-11.766,105.5654l197.7281,313.1135c5.6575,8.3638,6.6111,19.479,2.4357,29.5568-4.1626,10.0713-12.7068,17.2559-22.8232,19.2084l-361.0087,81.5501c-48.6362,10.4644-65.8793,51.2395-65.8922,82.9741-.0129,31.7154,17.2302,72.4646,65.8277,82.9548l.0644.0129,273.1568,61.7038c3.0027.6766,6.0054,1.2694,9.0339,1.772,18.9571,3.1702,34.5119,15.8126,41.6127,33.816,7.307,18.5447,4.4332,39.0675-7.6936,54.893-136.733,178.4231-251.7254,384.908-206.9295,434.3368,20.2329,22.3593,85.3132,23.5771,280.1545-97.3691l15.6064-10.4966c39.0353-26.2254,83.2899-55.9433,127.0548-89.6239,10.052-7.7323,21.934-11.708,33.9964-11.708,7.1524,0,14.3563,1.3918,21.2767,4.227,18.5575,7.6163,31.2901,24.0668,34.0351,44.0162,37.7079,273.814,96.8085,437.4297,158.1,437.6746h.1418c58.7656,0,116.4228-154.8073,154.2467-414.2264,2.7321-18.7186,14.5625-34.5505,31.6509-42.3537,17.5781-8.0416,37.9785-6.5209,54.5257,4.0659l237.5882,150.0455c41.8962,26.9213,82.9162,10.2969,105.3141-12.1011,22.3722-22.385,38.958-63.3663,12.0624-105.1981l.7217-.4639c-4.4332-5.4255-12.681-18.4802-31.638-48.5074l-166.8375-264.1873c-5.6704-8.9888-6.5854-19.7689-2.5259-29.5825,4.0595-9.82,12.3459-16.7984,22.7072-19.1375l358.0447-80.8864c40.5946-9.1628,69.8099-44.6734,69.4877-84.4304ZM553.0856,1119.9968c-7.9256,0-15.9543-.8763-23.9315-2.6741l-273.1568-61.7038c-18.5575-4.1883-25.1687-19.0086-25.1687-31.4834s6.6111-27.3015,25.1687-31.4898l361.2149-81.5888c26.9213-6.0828,49.3064-24.9303,59.861-50.4211,10.5546-25.4844,8.0674-54.6352-6.6627-77.9804l-197.741-313.1071c-10.1551-16.0832-4.343-31.2385,4.4719-40.0598,8.8535-8.8342,24.0217-14.6205,40.0663-4.4654l236.7634,149.5171c33.8933,21.3992,52.9148,59.2682,49.6543,98.8254-5.1678,62.6575-8.9437,128.1759-11.2247,194.7383-.8892,25.6068-11.0057,50.0409-28.5065,68.7982-45.4016,48.6298-89.0505,97.6333-129.7611,145.6445-20.4133,24.0926-50.0667,37.4502-81.0475,37.4502ZM798.2901,1411.3761c-68.0057,54.371-136.6171,104.2767-193.2047,140.5283-104.2444,67.1487-165.523,90.1136-198.5786,97.556l-9.5881,2.1586,1.6367-9.6976c16.676-98.3163,159.0665-310.2461,362.7743-539.9086,4.5363-5.1162,10.7479-6.6949,17.1142-4.3108,6.3276,2.3261,10.052,7.5648,10.168,14.3692,1.9202,98.1166,7.0622,194.2743,15.2971,285.7862.4768,5.2644-1.6238,10.3226-5.6188,13.5187ZM1134.1946,1490.6387c-9.1112,74.4364-20.3231,142.6225-33.3263,202.6639-26.3156,121.6164-53.4818,181.1874-71.627,209.7454l-5.5673,8.7633-5.5673-8.7633c-18.1452-28.5387-45.2985-88.0388-71.5625-209.4361-50.9946-247.0409-69.0367-531.8928-55.1572-870.8967l.0129-.0451c8.6731-181.3678,26.6894-334.3387,55.0669-467.6695,26.3027-121.5777,53.4818-181.1809,71.6399-209.7712l5.5673-8.7697,5.5673,8.7697c18.158,28.5967,45.3371,88.2128,71.6399,209.8163,18.7637,85.8029,35.0145,198.9459,44.6541,310.768l.0129.0064.2062,2.397c23.4031,269.8448,19.189,569.6072-11.5598,822.4215ZM1248.9292,636.6822l.0129-.0129c147.9449-120.0699,320.2466-225.1262,392.273-239.1733l9.2659-1.8106-1.482,9.3303c-15.6579,97.846-158.1387,310.2977-362.9805,541.2425-3.1316,3.5182-7.0751,5.3675-11.418,5.3675-1.8558,0-3.7502-.348-5.6446-1.0374-6.392-2.3584-10.1036-7.597-10.2195-14.3821-1.9073-98.123-7.0622-194.3968-15.3229-286.1342-.4897-5.2386,1.5207-10.1293,5.5157-13.3898ZM1791.3251,1055.6189l-361.2149,81.5952c-26.9213,6.0763-49.2935,24.9303-59.8481,50.4276-10.5546,25.4844-8.0674,54.6288,6.6627,77.961l197.7281,313.1199c10.1551,16.0832,4.343,31.2321-4.4719,40.0534-2.9512,2.9576-11.083,9.8587-22.6299,9.8587-5.9023,0-11.766-1.8106-17.4235-5.3868l-236.7763-149.5236c-33.8933-21.3927-52.9148-59.2553-49.6543-98.8189,5.1678-62.6639,8.9437-128.1824,11.2247-194.7383.8892-25.6133,11.0057-50.0474,28.5065-68.8047,45.2985-48.5138,88.9602-97.5109,129.7611-145.6381,25.6584-30.2849,65.8793-43.6167,104.979-34.7825l273.1568,61.7038c18.5575,4.1883,25.1687,19.0086,25.1687,31.4834s-6.6111,27.3015-25.1687,31.4898Z"/>
</svg>